<?xml version="1.0" encoding="utf-8"?>
<!-- Generator: Adobe Illustrator 24.3.0, SVG Export Plug-In . SVG Version: 6.00 Build 0)  -->
<svg version="1.1" id="Layer_1" xmlns="http://www.w3.org/2000/svg" xmlns:xlink="http://www.w3.org/1999/xlink" x="0px" y="0px"
	 viewBox="0 0 512 512" style="enable-background:new 0 0 512 512;" xml:space="preserve">
<style type="text/css">
	.st0{fill:#254087;}
	.st1{fill:#96CB3C;}
</style>
<g id="layer1" transform="translate(-400.50845,101.60621)">
	<g id="g3557" transform="translate(17.716538,17.750166)">
		<path id="path3435" class="st0" d="M546.24,182.92h22.76V90.51h-22.76V182.92z"/>
		<path id="path3439" class="st0" d="M504.22,129.04c8.35,0,10.78,7.54,10.78,11.72h-22.36
			C492.63,134.97,496.81,129.04,504.22,129.04z M528.06,164.2c-3.64,1.21-9.16,2.96-16.16,2.96c-9.83,0-17.51-3.23-18.72-11.05
			h41.89c0.27-1.48,0.81-3.91,0.81-8.89c0-17.65-8.76-33.94-31.25-33.94c-21.82,0-33.41,17.11-33.41,36.23
			c0,22.09,15.49,34.75,37.04,34.75c13.6,0,19.53-3.23,23.3-4.45L528.06,164.2"/>
		<path id="path3443" class="st0" d="M830.46,129.04c8.35,0,10.78,7.54,10.78,11.72h-22.36
			C818.88,134.97,823.05,129.04,830.46,129.04z M854.3,164.2c-3.64,1.21-9.16,2.96-16.16,2.96c-9.83,0-17.51-3.23-18.72-11.05h41.89
			c0.27-1.48,0.81-3.91,0.81-8.89c0-17.65-8.76-33.94-31.25-33.94c-21.82,0-33.41,17.11-33.41,36.23
			c0,22.09,15.49,34.75,37.04,34.75c13.6,0,19.53-3.23,23.3-4.45L854.3,164.2"/>
		<path id="path3447" class="st0" d="M614.81,167.43c-7.41,0-12.26-7.27-12.26-18.59c0-9.02,3.23-18.59,12.26-18.59
			c8.76,0,11.85,9.97,11.85,18.45C626.66,160.02,621.94,167.43,614.81,167.43z M614.4,184.27c17.78,0,35.7-11.18,35.7-36.1
			c0-14.82-8.76-34.75-34.62-34.75c-26.54,0-36.23,19.26-36.23,35.97C579.38,170.12,593.79,184.27,614.4,184.27"/>
		<path id="path3449" class="st0" d="M660.2,182.79h22.76v-68.16H660.2V182.79z"/>
		<path id="path3453" class="st0" d="M753.68,96.17v18.59h-8.76v16.84h8.76v28.15c0,14.95,7.14,24.52,23.03,24.52
			c7.14,0,14.82-1.89,16.16-2.29l-0.13-17.65c-0.67,0.27-4.98,1.08-7.81,1.08c-3.23,0-8.89-0.94-8.89-9.43V131.6h14.68v-16.97
			c0,0-12.8,0-14.68,0c0-2.02,0-21.01,0-21.01L753.68,96.17"/>
		<path id="path3457" class="st0" d="M701.01,96.17v18.59h-8.76v16.84h8.76v28.15c0,14.95,7.14,24.52,23.03,24.52
			c7.14,0,14.82-1.89,16.16-2.29l-0.13-17.65c-0.67,0.27-4.98,1.08-7.81,1.08c-3.23,0-8.89-0.94-8.89-9.43V131.6h14.68v-16.97
			c0,0-12.8,0-14.68,0c0-2.02,0-21.01,0-21.01L701.01,96.17"/>
		<path id="path3459" class="st0" d="M660.2,108.16h22.76V90.51H660.2V108.16z"/>
		<path id="path3463" class="st0" d="M382.85,182.92h26.94c39.47,0,54.42-23.57,54.42-45.93c0-30.58-19.53-48.09-54.96-48.09
			c-9.7,0-20.47,0.4-26.4,1.08V182.92z M413.16,164.6c-3.1,0-6.2,0.13-7.81,0c0,0-0.13-56.71,0-56.84c1.62-0.13,4.58-0.27,8.08-0.27
			c13.34,0,27.07,8.76,27.07,28.83C440.5,159.35,422.99,164.87,413.16,164.6"/>
		<path id="path3467" class="st1" d="M869.53,171.74c0-7,5.66-12.66,12.66-12.66c7,0,12.66,5.66,12.66,12.66
			c0,7-5.66,12.66-12.66,12.66C875.18,184.27,869.53,178.74,869.53,171.74"/>
	</g>
</g>
</svg>
